<?xml version="1.0"?>
<svg width="125.99999999999999" height="125.99999999999999" xmlns="http://www.w3.org/2000/svg" xmlns:svg="http://www.w3.org/2000/svg">

 <g>
  <title>Layer 1</title>
  <g id="svg_1">
   <path id="svg_2" d="m99.980003,36.823406c-0.006004,-0.467999 -0.154007,-0.93 -0.475006,-1.294998l-19.667,-22.465002c-0.003998,-0.006 -0.009995,-0.007999 -0.015999,-0.014c-0.116997,-0.131 -0.251999,-0.238999 -0.395996,-0.334c-0.042999,-0.028 -0.086006,-0.053 -0.131004,-0.078c-0.126999,-0.068 -0.257996,-0.124001 -0.394997,-0.165c-0.037003,-0.011 -0.07,-0.026 -0.107002,-0.036c-0.150002,-0.035 -0.303001,-0.057 -0.459,-0.057l-48.334,0c-2.205,0 -4,1.795 -4,4l0,94.000004c0,2.205994 1.795,4 4,4l66,0c2.207001,0 4,-1.794006 4,-4l0,-73.333004c0,-0.075001 -0.012001,-0.148998 -0.019997,-0.223zm-37.291004,52.280003l-9.280998,19.187996l-5.576,0l9.283001,-18.113998l0,-0.068001l-10.322002,0l0,-4.330002l15.896,0l0,3.324005zm20.125004,19.187996l-17.75,0l0,-2.777l10.872993,-15.650002l0,-0.135994l-9.856995,0l0,-4.268005l16.563995,0l0,2.980003l-10.636993,15.446999l0,0.135002l10.806999,0l0,4.268997zm-52.814003,-27.994995l0,-63.917004l46.334,0l0,20.466c0,1.104 0.894997,2 2,2l17.666,0l0.001999,41.451004l-66.001999,0z"/>
   <g id="svg_3">
    <rect id="svg_4" height="3.854" width="29.102" y="39.942406" x="41.174"/>
    <polygon id="svg_5" points="84.82599639892578,48.731407165527344 84.82599639892578,43.795406341552734 70.2750015258789,43.795406341552734 70.2750015258789,48.731407165527344 75.1989974975586,48.731407165527344 75.1989974975586,50.001407623291016 75.1989974975586,51.446407318115234 75.1989974975586,53.09040451049805 75.1989974975586,54.5404052734375 75.1989974975586,56.221405029296875 75.1989974975586,57.66940689086914 75.1989974975586,59.62440490722656 70.2750015258789,59.62440490722656 70.2750015258789,64.33840942382812 41.17399978637695,64.33840942382812 41.17399978637695,68.1904067993164 70.2750015258789,68.1904067993164 70.2750015258789,64.55740356445312 84.82599639892578,64.55740356445312 84.82599639892578,59.62440490722656 76.69499969482422,59.62440490722656 76.69499969482422,57.66940689086914 79.90599822998047,57.66940689086914 79.90599822998047,56.221405029296875 76.69499969482422,56.221405029296875 76.69499969482422,54.5404052734375 79.90599822998047,54.5404052734375 79.90599822998047,53.09040451049805 76.69499969482422,53.09040451049805 76.69499969482422,51.446407318115234 79.90599822998047,51.446407318115234 79.90599822998047,50.001407623291016 76.69499969482422,50.001407623291016 76.69499969482422,48.731407165527344 "/>
    <rect id="svg_6" height="16.801" width="21.615" y="45.778406" x="44.918"/>
   </g>
  </g>
  <path d="m45.629288,86.688278c0.751358,0.624794 1.63583,0.881439 2.48595,0.949219c0.922558,0.073555 1.731041,0.316719 2.640675,0.316406c0.862812,-0.00029 1.659164,-0.103172 2.480415,-0.204819c0.96323,-0.119217 1.943851,-0.251991 2.756317,-0.416603c0.867825,-0.175827 1.761753,-0.327797 2.640938,-0.327797c0.854298,0 1.735672,0.013306 2.562893,0.289406c0.78688,0.262634 1.096531,1.100586 0.216843,1.265625c-0.825146,0.154808 -1.768658,0.027 -2.631233,0.027c-0.907875,0 -1.768764,0 -2.670734,0c-0.798767,0 -1.767708,0 -2.678959,0c-0.905025,0 -1.755104,0 -2.63345,0c-0.840374,0 -1.794655,0 -2.648529,0c-0.975376,0 -1.927532,-0.068718 -1.758904,-0.204819c0.725231,-0.58535 1.708595,-0.111588 2.591682,-0.111588c1.014191,0 1.717667,0 2.637566,0c0.874123,0 1.891476,0 2.664562,0c1.012497,0 1.898384,0 2.840061,0c0.853031,0 1.732647,0.065948 2.589046,0c0.876408,-0.06749 1.702553,-0.379044 2.577339,-0.61615c0.883072,-0.239349 1.708843,-0.329773 2.644527,-0.333069c0.827393,-0.002914 1.739494,0 2.687866,0c0.881248,0 1.762115,0.050743 2.63166,-0.003372c0.898949,-0.055946 1.792168,-0.286652 2.647682,-0.313034c0.885521,-0.027306 1.827286,-0.006149 2.632767,-0.158203c0.854523,-0.161308 1.766708,-0.156555 2.630974,-0.158203c0.885941,-0.001686 1.741638,-0.241699 2.741341,-0.263672c0.844292,-0.018555 1.629997,0.527245 2.50631,0.580078c0.874542,0.052727 1.759521,0.003647 1.362709,0.137955c-0.834648,0.282494 -1.703026,0.56163 -2.420723,0.752625c-0.790833,0.210457 -1.901909,0.271851 -2.820023,0.445076c-0.861351,0.162514 -1.712387,0.246376 -2.646629,0.246376c-0.822662,0 -1.646477,0.166512 -2.523239,0.313034c-0.933746,0.156044 -1.828194,0.003372 -2.724464,0.003372c-0.800194,0 -1.776779,0 -2.466286,0c-0.926384,0 -1.919266,0 -2.485947,0c-1.235573,0 -1.881355,0 -2.826302,0c-1.096031,0 -1.891689,0 -2.857147,0c-0.928337,0 -1.703293,0.227493 -2.460167,0.498238c-0.957409,0.342484 -1.794979,0.266434 -2.509945,0.357483c-0.920719,0.117249 -1.848095,0.30056 -2.813271,0.383324c-0.771725,0.066177 -1.756809,0.167419 -2.588203,0.374573c-0.944611,0.235367 -1.787037,0.035744 -2.627861,0.375099c-0.8144,0.32869 0,0.858727 0.921535,0.85894c0.862995,0.000198 1.774353,0.000023 2.569057,0c0.936615,-0.000031 1.669106,0.004433 2.532253,-0.018089c0.986038,-0.025726 2.075687,-0.091774 2.831467,-0.146706c0.756237,-0.05497 1.845997,-0.14856 2.516907,-0.21489c0.917843,-0.090744 1.73711,-0.176178 2.901234,-0.348053c0.794132,-0.117249 1.673901,-0.287537 2.508678,-0.442963c0.862839,-0.160652 1.73037,-0.342865 2.701897,-0.39994c0.891281,-0.052361 1.857941,-0.011391 2.667938,-0.011391c0.893532,0 1.890846,0 2.681862,0c0.928703,0 1.794426,-0.045876 2.620689,0.003372c0.941429,0.056114 1.793518,0.281319 2.655701,0.447609c0.881378,0.169991 1.762802,0.181831 2.670044,0.181831c0.739975,0 -0.100052,-0.022537 -0.95723,0.022781c-1.032089,0.054565 -1.875374,0.202385 -2.519966,0.333176c-0.761406,0.154495 -2.201706,0.48761 -2.780365,0.620262c-0.621155,0.142395 -1.273331,0.292313 -1.944954,0.448029c-1.356972,0.314621 -2.019333,0.469383 -2.655281,0.621002c-1.643402,0.391808 -2.082634,0.508636 -3.172867,0.776039c-0.609581,0.149513 -1.834015,0.409729 -2.524239,0.531197c-0.711666,0.125244 -1.746532,0.287842 -2.632763,0.437531c-0.881592,0.148911 -1.821255,0.264282 -2.634029,0.339928c-0.996391,0.092728 -1.900417,0.28624 -2.705853,0.299744c-0.948082,0.015892 -1.85656,-0.03688 -2.773247,0.090279c-0.72731,0.100891 -1.683353,0.434036 -2.570065,0.531143c-0.883209,0.096725 -0.992348,0.654556 -0.406685,0.807472c1.297527,0.338776 1.78867,0.235603 2.825981,0.298157c0.561878,0.033882 1.144146,0.066284 2.946533,0.118652c0.598404,0.017387 1.193451,0.028786 2.384438,0.041344c0.601631,0.00634 1.211201,0.009293 2.465439,0.010971c1.320045,0.001762 2.010601,0.00042 2.718559,0.00042c0.720619,0 1.449142,0 2.180832,0c1.453888,0 2.166595,0 3.539795,0c0.651688,0 1.277435,0 2.448563,0c0.544113,0 1.54628,0 2.824875,0c0.700737,0 1.575439,0 2.321999,0c1.191956,0 1.896751,-0.000809 2.923805,0c0.807259,0.000633 0.051201,0.032997 -0.327583,0.05426c-1.754471,0.098495 -2.574203,0.154907 -3.504517,0.21743c-1.024773,0.068871 -2.127678,0.146774 -3.292366,0.235878c-1.210907,0.092644 -2.451714,0.191673 -3.705276,0.307076c-2.485481,0.228821 -3.685646,0.365585 -4.851143,0.504135c-1.131615,0.134521 -2.227818,0.276917 -3.28904,0.421455c-1.02705,0.139885 -2.018764,0.282448 -2.9758,0.421455c-1.81002,0.262901 -2.662415,0.387802 -3.479626,0.504982c-0.781067,0.112 -1.525555,0.217751 -2.232563,0.319412c-0.669144,0.096214 -1.299866,0.186829 -1.890842,0.276695c-1.062794,0.161621 -1.532768,0.240738 -1.963409,0.316833c-0.39389,0.069603 -0.752117,0.137535 -1.076412,0.204079c-0.293308,0.060181 -0.556808,0.117882 -0.791649,0.175606c-0.395866,0.097298 -1.320614,0.019562 -1.712811,0.723938c-0.442478,0.794678 -0.150982,2.00959 0.48737,2.271111c0.786892,0.322372 1.727924,-0.092529 2.635929,-0.220848c0.733223,-0.103622 1.52515,-0.219482 2.729794,-0.458107c0.775536,-0.153625 1.518349,-0.333824 2.236359,-0.531563c0.707134,-0.194748 2.101471,-0.645142 2.818127,-0.885941c0.752316,-0.252777 1.555721,-0.524757 2.433796,-0.79734c0.952751,-0.295769 1.450863,-0.439087 2.45874,-0.725098c0.986988,-0.280083 1.460564,-0.410027 2.735966,-0.752151c0.705273,-0.189186 1.589184,-0.398766 2.705959,-0.748192c0.779274,-0.243828 1.406502,-0.482491 2.483788,-0.785484c0.624474,-0.175636 1.579063,-0.409813 2.670891,-0.688019c0.761757,-0.194099 1.575195,-0.459206 2.38681,-0.824081c0.84967,-0.381981 1.612152,-0.737366 2.481575,-1.074356c0.766068,-0.296928 1.62339,-0.605446 2.359177,-0.769821c1.005386,-0.224602 1.851082,-0.172157 2.773247,-0.294731c0.879318,-0.116882 1.729149,-0.562851 2.592583,-0.91494c0.787399,-0.321083 1.232307,-0.946526 0.402046,-1.177032c-0.81794,-0.227089 -1.862358,-0.122864 -2.608452,-0.187309c-0.814423,-0.070351 -1.947533,-0.14856 -2.514481,-0.163742c-0.834198,-0.022331 -1.891365,-0.044212 -2.859367,-0.007965c-0.685326,0.025658 -1.800797,0.236549 -2.426147,0.471077c-1.026459,0.384964 -1.887314,0.54805 -2.691612,0.918999c-0.793831,0.366127 -1.402733,1.017822 -2.143127,1.453415c-0.60405,0.355377 -1.448341,0.921692 -2.182785,1.366821c-0.875969,0.530907 -1.56955,0.790733 -2.437592,1.291832c-0.700668,0.40448 -1.520412,1.009293 -2.164219,1.408173c-0.751484,0.465591 -1.636089,1.00769 -2.101357,1.301483c-0.92149,0.581879 -1.742897,1.130531 -2.435062,1.568527c-0.772709,0.48896 -1.478382,1.058556 -2.23341,1.509468c-0.791065,0.472435 -1.430504,1.176697 -2.273483,1.354904c-0.866817,0.183243 -1.539948,0.59951 -2.336342,0.977226c-0.780842,0.370338 -1.722641,0.213234 -2.449406,0.729416c-0.341293,0.242401 0.503048,0.499413 1.247906,0.509628c0.984089,0.013504 1.824669,0.305626 2.767128,0.31646c0.802238,0.009216 1.659027,0.173897 2.545437,0.29969c0.891838,0.126564 1.731655,0.270218 2.705063,0.326477c0.869431,0.050247 1.716293,0.006592 2.689137,0.006592c0.849709,0 1.632656,0 2.556881,0c0.989822,0 1.911354,0 2.730057,0c0.751465,0 1.747604,0.111824 2.618156,-0.027c0.920959,-0.146858 1.767212,-0.4319 2.624481,-0.597794c0.928566,-0.179688 1.747795,-0.488983 2.553192,-0.624168c0.918022,-0.154091 1.801826,-0.333069 2.651901,-0.333069c0.942894,0 1.852928,0 2.729958,0c0.856247,0 1.738968,0 2.609665,0c0.913834,0 1.71566,0 2.649902,0c0.837158,0 1.74398,0 2.528137,0c1.13031,0 2.040756,0.49395 2.870544,0c0.131546,-0.078308 -0.79451,-0.302902 -1.689186,-0.316406c-0.918793,-0.013863 -1.756264,-0.045311 -2.69072,0.003372c-0.860855,0.044846 -1.619942,0.19928 -2.739235,0.2603c-0.717003,0.039085 -1.526329,0.043488 -2.403419,0.049362c-0.457047,0.003059 -1.868065,0.003372 -2.813484,0.003372c-0.922646,0 -1.368301,0 -2.214058,0c-1.430206,0 -2.227654,0.039421 -2.966568,0c-1.047287,-0.05587 -1.84964,-0.318039 -2.73333,-0.632813c-0.824799,-0.2938 -1.720619,-0.399574 -2.431686,-0.966934c-0.650444,-0.51899 -1.267418,-1.242477 -0.837845,-1.24791c0.841209,-0.010635 1.818367,-0.203087 2.416924,-0.403732c0.795448,-0.26664 1.723442,-0.730324 1.906029,-0.896065c0.697945,-0.633545 1.605545,-0.774139 2.350212,-1.266205c0.770203,-0.508942 1.378311,-0.777267 1.863953,-0.093231c0.537819,0.75753 1.458557,1.81636 2.009758,1.288139c0.654564,-0.627281 0,-1.701843 0,-2.642998l0,-0.903389l0,-0.830986" id="svg_12" stroke-linecap="null" stroke-linejoin="null" stroke-dasharray="null" stroke-width="5" stroke="#000000" fill="#000000"/>
  <path d="m40.566788,41.125778c1.050045,0 2.025845,0 2.839218,0c0.759377,0 1.739815,0 2.477249,0c1.121346,0 2.013611,0 2.926125,0c0.894379,0 1.752472,0 2.643208,0c0.89949,0 1.823185,0 2.666935,0c0.875389,0 1.779415,0 2.656967,0c0.877922,0 1.78833,0 2.678329,0c0.882298,0 1.808311,0 2.70443,0c0.872383,0 1.76894,-0.115025 2.582397,0.018089c0.928429,0.151928 1.823235,0.289181 2.703011,0.298317c0.871094,0.009045 1.693619,0.31638 2.579605,0.316406c0.910721,0.000027 2.199181,-0.200077 2.491539,0.624798c0.159233,0.449265 -1.790512,0.596016 -1.572586,1.367138c0.204315,0.722961 1.65078,0.206917 2.581711,0.223331c0.763519,0.013466 1.67041,0.155228 2.515221,0.605812c0.693016,0.369621 1.539322,0.659603 2.337189,0.817593c0.857628,0.169823 1.72316,0.47929 2.562889,0.656437c0.846214,0.178513 1.76992,0.258392 2.657814,0.134579c0.82016,-0.114368 1.781136,-0.985046 2.007179,-0.520065c0.394821,0.812164 -0.613129,1.655941 -1.113228,2.332439c-0.578529,0.782597 -1.482544,0.713921 -2.360809,0.584297c-1.00222,-0.147919 -1.76432,-0.185394 -2.659607,-0.346622c-0.89077,-0.160412 -1.762794,-0.359581 -2.707802,-0.429573c-0.744942,-0.055176 -1.75827,-0.038445 -2.555618,-0.038445c-0.924118,0 -1.901176,0 -2.728371,0c-0.913147,0 -1.816154,0.051628 -2.718353,-0.111588c-0.829102,-0.14999 -1.733337,-0.359356 -2.590523,-0.48278c-0.874168,-0.12587 -1.664642,-0.085506 -2.630177,-0.243263c-0.884094,-0.144451 -1.759747,-0.111588 -2.649269,-0.111588c-0.834049,0 -1.783741,0.009609 -2.673843,0c-0.837936,-0.009045 -1.730057,-0.259132 -2.587044,-0.314983c-0.929005,-0.060543 -1.696201,0.000183 -2.634502,-0.001423c-0.986771,-0.00169 -1.814087,-0.221184 -2.635666,-0.314983c-0.968933,-0.110626 -1.757763,-0.288822 -2.704693,-0.317829c-0.867466,-0.026573 -1.684387,-0.372185 -2.529301,-0.629436c-0.829178,-0.25246 -1.651165,-0.503838 -2.535942,-0.64278c-0.885708,-0.139088 -1.7113,-0.227856 -2.665459,-0.549385c-0.785782,-0.26479 -0.463089,-0.963184 0.384697,-1.019463c0.940578,-0.062439 1.735699,-0.006592 2.61705,-0.006592c1.120499,0 1.801563,0 2.673,0c0.958973,0 1.841904,0 2.741604,0c0.792442,0 1.762753,0 2.698471,0c0.854298,0 1.792969,0 2.657814,0c0.894798,0 1.746826,0 2.689453,0c0.849236,0 1.755211,0 2.602547,0c0.926437,0 1.827141,0 2.723625,0c0.856934,0 1.756687,0 2.582298,0c0.914627,0 1.861732,-0.000206 2.738022,0c0.89727,0.000214 1.775246,0.286816 2.103256,1.080582c0.336548,0.814426 0.541595,1.951694 -0.005959,2.40131c-0.641457,0.526718 -1.774803,0.266293 -2.645157,0.314983c-1.028061,0.057514 -1.7202,0.109634 -2.45974,0.193218c-1.047649,0.118408 -1.872761,0.216866 -2.751892,0.324421c-0.629253,0.076984 -1.655361,0.213039 -2.754002,0.376312c-0.726845,0.108017 -1.413158,0.214249 -2.548969,0.407532c-0.800392,0.136204 -1.835945,0.274853 -2.741501,0.280548c-0.802128,0.005047 -1.697987,-0.017712 -2.605762,-0.181828c-0.820377,-0.148315 -1.760342,-0.376884 -2.621532,-0.444393c-0.848343,-0.066502 -1.812664,0.037952 -2.68634,-0.006592c-0.882362,-0.044987 -1.709496,-0.382065 -2.381645,-0.885937c-0.714268,-0.535446 -1.225365,-1.213394 -1.569954,-1.968311c-0.394073,-0.863327 -0.438099,-1.670033 -0.744873,-2.524658c-0.04591,-0.127903 -0.054916,0.719879 -0.052734,1.792969c0.00169,0.830254 -0.044296,1.48373 0.111588,2.511791c0.144241,0.951283 0.377579,1.786987 0.584084,2.619896c0.242031,0.976196 -0.112324,2.491936 0.566578,2.336765c0.833649,-0.19054 0.003376,-1.735226 0.003376,-2.775093c0,-0.748405 0,-1.506939 0,-2.518066c0,-0.85651 0,-1.858887 0,-2.709229c0,-0.88905 -0.12915,-1.705193 -0.289406,-2.58836c-0.15696,-0.865005 0.075802,-1.812027 -0.249908,-2.578869c-0.356277,-0.838799 -0.700825,-0.193897 -0.796341,0.732899c-0.08728,0.846905 -0.22142,1.782436 -0.239784,2.516117c-0.024876,0.993858 -0.006592,1.918213 -0.006592,2.779102c0,0.881294 0.007267,1.77499 0.134579,2.656967c0.125046,0.866283 0.185352,1.663719 0.340031,2.658657c0.136166,0.875854 0.138657,1.846092 0.161579,2.508892c0.035992,1.040749 0.303932,1.881111 0.31303,2.788647c0.008812,0.878956 0.27142,1.664673 0.316406,2.564312c0.044678,0.893471 0,1.795132 0,2.679012c0,0.955231 0,1.829197 0,2.691669c0,0.910828 0,1.760487 0,2.654171c0,0.914467 -0.133888,2.122078 0.439594,2.172081c0.807621,0.070419 1.630672,-0.708221 2.471344,-0.811272c0.87936,-0.107796 1.825031,-0.003372 2.678905,-0.003372c0.896484,0 1.674843,0 2.673843,0c0.837421,0 1.725731,0 2.65892,0c0.919846,0 1.758533,0 2.667885,0c0.889523,0 1.723572,0 2.679432,0c0.868748,0 1.765232,0 2.64484,0c0.87244,0 1.757111,0 2.677696,0c0.925117,0 1.797554,-0.144928 2.640884,0.011391c0.857254,0.158905 1.654221,0.41153 2.53125,0.632813c0.8442,0.212997 1.72863,0.305016 2.608452,0.305016c0.88678,0 1.757088,0.082031 2.647263,-0.000053c0.897324,-0.082748 1.58252,-0.629601 2.484848,-1.012444c0.796066,-0.337753 1.64798,-0.581161 2.356171,-1.044144c0.731613,-0.478294 1.45253,-0.786362 2.186577,-1.365189c0.653458,-0.515282 1.501923,-0.888981 1.903076,-1.632656c0.374779,-0.694786 0.380333,-1.611137 0.550972,-2.48653c0.160248,-0.822086 0.204468,-1.703022 0.375259,-2.567322c0.155128,-0.785038 0.611618,-0.431152 0.747353,0.420399c0.14679,0.920898 0.255798,1.762505 0.353951,2.779736c0.0765,0.79285 0.052734,1.740234 0.052734,2.632076c0,0.847546 0.023636,0.898335 -0.177979,0.083744c-0.21711,-0.877186 -0.460854,-1.775219 -0.613037,-2.498291c-0.16111,-0.765488 -0.376808,-1.903812 -0.483467,-2.600281c-0.139618,-0.911663 -0.149223,-1.663372 -0.315567,-2.783531c-0.124115,-0.835777 -0.308174,-1.720406 -0.308388,-2.666672c-0.000191,-0.872646 0,-1.778625 0,-2.697468c0,-0.85767 0.158249,-1.695438 0.313034,-2.550236c0.164917,-0.910786 -0.208023,-1.805519 0.003372,-2.679379c0.172073,-0.711304 0.922325,-1.365135 1.788536,-1.378635c0.90081,-0.014042 1.688637,0.177959 1.691933,0.972424c0.003647,0.878544 0,1.628437 0,2.463749c0,1.099617 0,2.07457 0,2.737125c0,1.016983 0.185982,1.907379 -0.036179,2.825031c-0.194847,0.804832 -0.910721,1.592106 -1.347992,2.320999c-0.463547,0.772697 -0.888931,1.525394 -1.390076,2.276016c-0.44458,0.665897 -0.891983,1.589714 -1.732277,2.00206c-0.763283,0.374557 -1.701385,0.113457 -2.641411,0.222908c-0.786102,0.091526 -1.487877,0.63327 -1.711441,1.375523c-0.240311,0.797852 -0.911751,1.498581 -1.175346,2.294788c-0.284294,0.858727 -0.510429,1.693794 -0.786369,2.620689c-0.261513,0.878426 0.099548,2.338036 -0.569534,2.324532c-0.913544,-0.01844 0,-1.562622 0,-2.635872c0,-0.728584 0,-1.525505 0,-2.342674c0,-1.159683 0,-2.166328 0,-2.759907c0,-1.267895 0,-1.911938 0,-2.986454c0,-0.731689 -0.075256,-1.719036 0.027,-2.556141c0.115211,-0.94315 0.350182,-1.783165 0.494225,-2.643467c0.142197,-0.8493 -0.045944,-1.783333 0.111588,-2.6633c0.160744,-0.897938 1.043007,-1.15337 1.825874,-0.821388c0.835075,0.354118 1.496498,0.978382 2.129204,1.617889c0.619667,0.626324 0.905777,1.421059 1.271111,2.142281c0.397331,0.784397 0.468407,1.778309 0.469124,2.737072c0.000618,0.826508 0.202133,1.684357 0,2.615204c-0.178078,0.820061 -1.257225,1.189411 -1.898438,0.626537c-0.609787,-0.53529 -0.921715,-1.48489 -1.265625,-2.300537c-0.364906,-0.86544 -0.440201,-1.71225 -0.632813,-2.709229c-0.138336,-0.716042 -0.855484,-1.615211 -0.614723,-2.519173c0.089737,-0.336945 0.51931,0.51236 0.587723,1.428627c0.062843,0.84174 0.027,2.092499 0.027,2.489799c0,0.875603 0,1.804359 0,2.720463c0,1.206455 -0.831306,2.893955 0,2.893955c0.804199,0 0,-1.663399 0,-2.65818c0,-0.712177 0,-1.755634 0,-2.597118c0,-0.607922 0,-1.811108 0,-2.608452c0,-0.885937 -0.921112,-2.717258 0,-2.760117c0.580902,-0.027031 0.179977,1.775433 0.223175,2.181461c0.093788,0.881554 0.197739,1.793873 0.304169,3.063499c0.057571,0.686749 0.074699,1.697693 0.105888,2.640514c0.029564,0.89373 1.202293,1.929726 0.497818,2.600437c-0.333672,0.317677 -1.160156,-0.178238 -2.039345,-0.178452c-0.792702,-0.000191 -1.954552,0 -2.710602,0c-0.713341,0 -1.897209,-0.037441 -2.761963,0.090282c-0.823563,0.121643 -1.652588,0.500767 -2.464172,0.732372c-0.866425,0.247253 -1.648834,0.321541 -2.626854,0.404633c-0.848717,0.072105 -1.887405,0.207611 -2.682758,0.664349c-0.740593,0.425289 -1.575138,1.394176 -0.993305,2.063442c0.526005,0.605049 1.858887,0.158203 2.614883,0.158203c0.735756,0 1.773987,0 2.488647,0c1.042343,0 1.921532,0 2.821075,0c0.955391,0 1.781319,0.063271 2.424515,0.580078c0.630142,0.506317 1.044388,0.01165 0.564468,-0.612137c-0.434082,-0.564217 -1.573799,-0.970608 -2.365456,-1.082111c-0.989059,-0.139309 -1.744827,-0.14576 -2.738388,-0.151455c-0.886345,-0.005081 -1.799294,0 -2.685234,0c-0.891899,0 -1.67934,-0.001274 -2.526505,-0.227444c-0.768425,-0.205147 -1.667095,-0.548695 -2.433479,-0.786324c-0.777138,-0.240963 -1.984394,-0.493004 -2.640358,-0.561672c-1.152695,-0.120667 -1.958694,-0.224213 -2.518066,-0.336182c-0.825066,-0.165154 -1.95747,-0.540001 -2.825138,-0.755474c-0.829853,-0.206081 -1.865108,-0.180561 -2.533253,-0.180561c-0.943523,0 -1.755108,0 -2.773514,0c-0.945,0 -2.060154,-0.659233 -2.744087,0.001423c-0.499962,0.482944 0.721207,1.16544 1.298954,1.710018c0.605835,0.571053 1.014767,1.451733 1.66029,2.07225c0.654873,0.629501 1.387318,1.130592 2.271427,1.240364c0.991234,0.123077 1.696835,0.038445 2.632763,0.038445c0.913151,0 1.812798,0.142731 2.74609,-0.137955c0.818043,-0.246025 1.588058,-0.792038 2.414551,-0.811264c0.84716,-0.019707 1.760746,0.001541 2.643311,0c0.963989,-0.001686 1.809231,-0.090836 2.690296,-0.263672c0.849686,-0.166679 0.585289,-0.758511 -0.18689,-0.946686c-0.759991,-0.185204 -1.889309,-0.375523 -2.738392,-0.483471c-0.552658,-0.070263 -1.859779,-0.174625 -2.585251,-0.193218c-0.713646,-0.018291 -1.707191,-0.0149 -2.543903,-0.008015c-0.641701,0.005283 -2.228817,0.04808 -2.703693,0.066708c-1.024002,0.040169 -1.557812,0.065125 -2.630917,0.123135c-0.524361,0.028347 -1.957172,0.1171 -2.73333,0.186047c-0.918087,0.081554 -1.620708,0.171181 -2.737125,0.245533c-1.020901,0.067989 -1.739578,0.096493 -2.708858,0.324421c-0.791779,0.186188 -0.069969,0.344738 0.610031,0.270844c1.083706,-0.117764 1.809025,-0.30476 2.640938,-0.516376c0.911755,-0.231926 1.389606,-0.355171 2.813484,-0.861889c0.474678,-0.168922 1.393379,-0.545006 2.260986,-0.949219c0.820805,-0.382408 1.20327,-0.575451 2.528561,-1.279549c0.55727,-0.296066 1.299736,-0.717762 2.251862,-1.219955c0.719101,-0.379284 1.423824,-0.731537 2.473984,-1.211731c0.6684,-0.30563 1.527477,-0.919945 2.37178,-1.173656c0.815586,-0.245083 2.521645,0.188831 2.518593,-0.652641c-0.002518,-0.693958 -1.345047,-0.304909 -2.062546,-0.332645c-1.243484,-0.048069 -1.998966,-0.096523 -2.851032,-0.141541c-0.463596,-0.024494 -1.46917,-0.075714 -2.583984,-0.105469c-1.218609,-0.032524 -1.854301,-0.033218 -2.498344,-0.031219c-0.645958,0.002003 -1.917316,0.026512 -2.528717,0.059906c-1.143734,0.062466 -2.150692,0.171654 -3.031174,0.329063c-0.795231,0.14217 -1.521137,0.335144 -2.572964,0.563519c-1.038311,0.225441 -1.727612,0.348083 -2.409378,0.454044c-1.326591,0.206181 -1.978119,0.266354 -2.936516,0.392132c-0.951466,0.124866 -1.888195,0.271957 -2.466755,0.394665c-1.126156,0.23885 -1.764786,0.950008 -1.111694,1.375523c0.75148,0.489616 1.65226,0.435387 2.754791,0.495914c0.669926,0.036777 1.824188,0.027 2.556034,0.027c0.794498,0 2.010342,0 2.70306,0c0.735752,0 1.494282,0.000038 2.255344,0c1.102676,-0.000053 2.13681,0.006077 2.80125,-0.022781c1.318443,-0.057262 1.98777,-0.152096 2.664562,-0.249748c1.020634,-0.147266 2.027077,-0.310951 2.686077,-0.396988c0.968987,-0.126507 1.610012,-0.185276 2.874287,-0.381374c0.624504,-0.096867 1.507114,-0.250317 2.673843,-0.524284c0.723049,-0.169785 1.955341,-0.039745 1.953651,-0.323261c-0.004982,-0.836456 -1.663876,-0.000027 -2.582718,0c-0.97543,0.000027 -1.737007,-0.039436 -2.675533,0.090282c-0.850483,0.11755 -2.181614,0.819016 -1.719563,1.438171c0.523659,0.701714 1.618984,0.366688 2.689613,0.369984c0.811104,0.002499 1.402996,0 2.561466,0c0.742764,0 1.585461,0 2.73164,0c0.759377,0 1.707329,0.000504 2.433796,0c1.024048,-0.000713 1.953018,-0.041744 2.795769,-0.439594c0.731674,-0.345413 0.793724,-1.323242 0.110687,-1.806889c-0.759186,-0.537567 -1.539444,-0.449421 -2.692986,-0.653908c-0.563637,-0.099915 -1.448494,-0.26733 -2.279812,-0.399937c-1.092278,-0.174232 -1.978134,-0.318058 -2.908829,-0.469971c-0.863724,-0.140984 -1.624622,-0.286606 -2.597061,-0.331593c-0.967236,-0.044746 -1.792221,0.084797 -2.610985,-0.011391c-0.877701,-0.103115 -1.654091,-0.340553 -2.616047,-0.496548c-0.82497,-0.133778 -1.689907,-0.298363 -2.696625,-0.488529c-0.730907,-0.138065 -1.88028,0.025459 -2.579609,-0.628544c-0.611938,-0.572277 -0.525455,-1.895535 0.165218,-2.183254c0.869511,-0.362221 1.689926,0 2.65781,0c0.912518,0 1.792717,-0.073429 2.63039,-0.226547c0.882523,-0.161316 1.809002,-0.089859 2.710548,-0.089859c0.836315,0 1.70998,0.183029 2.580135,0.316406c0.900364,0.138008 1.78772,0.096878 2.521175,0.204819c1.011097,0.1488 1.886204,0.111588 2.81897,0.111588c0.88636,0 1.97319,-0.455936 2.606819,0.164795c0.618752,0.606159 0.13398,1.731754 0.178825,1.200394c0.070564,-0.836132 0.509186,-1.571503 0.885094,-2.461643c0.382683,-0.906193 0.784531,-1.538067 1.012497,-2.436749c0.203087,-0.800583 0.412643,-1.642448 0.644203,-2.533783c0.209709,-0.807228 0.342026,0.16243 0.286926,0.962139c-0.05941,0.862236 -0.240082,1.564251 -0.540108,2.449249c-0.274612,0.810047 -0.627518,1.653839 -1.010178,2.76149c-0.250679,0.725605 -0.495979,1.528358 -0.79808,2.405582c-0.295189,0.857155 -0.532272,1.677868 -0.797607,2.551025c-0.242805,0.799004 -0.922112,1.934612 -0.632813,1.934612c0.879929,0 0,-1.821655 0,-2.63155c0,-0.878502 -0.072166,-1.787483 0.002846,-2.754738c0.070129,-0.904316 0.39608,-1.586304 0.595215,-2.490803c0.206161,-0.936432 0.163696,-1.878723 0.574066,-2.597378c0.445847,-0.780781 1.08223,0.056938 1.517326,0.99884c0.282188,0.610897 0.619789,1.375813 0.882561,1.938938c0.560829,1.201866 0.87117,1.807724 1.14328,2.43c0.529411,1.21069 0.73748,1.805878 0.94706,2.651325c0.283699,1.144428 0.25399,1.910137 0.355957,2.887207c0.084274,0.807503 0.31971,1.686588 0.468018,2.53125c0.158783,0.904308 0.047546,1.8368 0.185204,2.685921c0.146828,0.905685 0.454033,1.706093 0.587723,2.601547c0.128716,0.862152 0.483566,0.177521 0.745827,-0.664192c0.277107,-0.889366 0.345604,-1.749008 0.795547,-2.513691c0.438522,-0.745277 1.049423,-1.505268 1.38723,-2.324478c0.330238,-0.800858 0.782333,-1.462688 0.884933,-2.314301c0.1073,-0.890663 0.250366,-1.773502 0.317833,-2.70158c0.061859,-0.850998 0,-1.737125 0,-2.613728c0,-0.951801 0.036263,-1.812943 -0.253548,-2.648952c-0.264069,-0.761753 -0.868927,-1.51762 -1.423668,-2.094612c-0.707611,-0.735992 -1.234947,-1.439285 -2.008865,-1.625484c-0.761749,-0.18327 -1.794662,-0.427959 -2.602493,-0.479565c-0.986847,-0.063042 -1.830833,-0.013184 -2.73407,-0.013184c-0.951164,0 -1.745659,0 -2.664558,0c-0.885094,0 -1.760727,-0.028999 -2.682915,0.006592c-0.906944,0.035004 -1.648918,0.268032 -2.561413,0.535938c-0.867577,0.254719 -1.103626,1.075783 -1.103626,1.915314l0,0.889313" id="svg_16" stroke-linecap="null" stroke-linejoin="null" stroke-dasharray="null" stroke-width="5" stroke="#ffffff" fill="none"/>
 </g>
</svg>