<?xml version="1.0"?>
<svg width="640" height="480" xmlns="http://www.w3.org/2000/svg" xmlns:svg="http://www.w3.org/2000/svg" xmlns:xlink="http://www.w3.org/1999/xlink">
 <!-- Created with SVG-edit - http://svg-edit.googlecode.com/ -->
 <defs>
  <symbol id="svg_1" height="512" width="512" xmlns="http://www.w3.org/2000/svg">
   <path fill="#f03c2e" d="m502.341095,278.80365l-223.542999,223.538513c-12.86795,12.877136 -33.747849,12.877136 -46.633041,0l-46.415207,-46.424469l58.88028,-58.883667c13.686462,4.620941 29.379395,1.519501 40.283783,-9.387299c10.970123,-10.974823 14.04306,-26.802887 9.304657,-40.537018l56.753998,-56.748444c13.733826,4.734039 29.568298,1.673859 40.538422,-9.311554c15.322968,-15.318787 15.322968,-40.151947 0,-55.483536c-15.334106,-15.332214 -40.161743,-15.332214 -55.502533,0c-11.524536,11.535919 -14.375732,28.47171 -8.53183,42.672195l-52.933868,52.930481l0,-139.285141c3.732697,-1.84996 7.258636,-4.313919 10.371155,-7.417557c15.322937,-15.321594 15.322937,-40.151962 0,-55.496956c-15.322968,-15.316597 -40.168457,-15.316597 -55.480255,0c-15.322968,15.344994 -15.322968,40.175362 0,55.496956c3.787262,3.782883 8.172989,6.64473 12.852341,8.56041l0,140.573349c-4.679352,1.91568 -9.054489,4.753571 -12.852341,8.562653c-11.605331,11.601685 -14.39801,28.637787 -8.444901,42.892303l-58.04895,58.058502l-153.284064,-153.273895c-12.87432,-12.887665 -12.87432,-33.76799 0,-46.644562l223.554038,-223.538996c12.870178,-12.87456 33.743378,-12.87456 46.633057,0l222.49826,222.503153c12.87851,12.878769 12.87851,33.769699 0,46.644577"/>
  </symbol>
 </defs>
 <g>
  <title>Layer 1</title>
  <use x="0" y="0" transform="matrix(0.160108, 0, 0, 0.158179, -0.487654, -0.493827)" xlink:href="#svg_1" id="svg_2"/>
 </g>
</svg>